<svg id="Layer_1" data-name="Layer 1" xmlns="http://www.w3.org/2000/svg" viewBox="0 0 500 500">
  <defs>
    <style>
      .cls-1 {
        fill: #ffd7e2;
      }

      .cls-2 {
        fill: #fff;
      }
    </style>
  </defs>
  <title>Artboard 4</title>
  <rect class="cls-1" width="500" height="500"/>
  <g>
    <polygon class="cls-2" points="20.62 101.38 13.44 101.38 40.89 16.07 48.07 16.07 20.62 101.38"/>
    <polygon class="cls-2" points="32.87 101.38 25.69 101.38 53.14 16.07 60.32 16.07 32.87 101.38"/>
    <polygon class="cls-2" points="45.13 101.38 37.95 101.38 65.4 16.07 72.58 16.07 45.13 101.38"/>
    <polygon class="cls-2" points="57.38 101.38 50.2 101.38 77.65 16.07 84.83 16.07 57.38 101.38"/>
    <polygon class="cls-2" points="69.64 101.38 62.46 101.38 89.91 16.07 97.09 16.07 69.64 101.38"/>
    <polygon class="cls-2" points="81.89 101.38 74.71 101.38 102.16 16.07 109.34 16.07 81.89 101.38"/>
    <polygon class="cls-2" points="94.14 101.38 86.97 101.38 114.42 16.07 121.6 16.07 94.14 101.38"/>
    <polygon class="cls-2" points="106.4 101.38 99.22 101.38 126.67 16.07 133.85 16.07 106.4 101.38"/>
    <polygon class="cls-2" points="118.66 101.38 111.47 101.38 138.93 16.07 146.11 16.07 118.66 101.38"/>
    <polygon class="cls-2" points="130.91 101.38 123.73 101.38 151.18 16.07 158.36 16.07 130.91 101.38"/>
  </g>
  <g>
    <polygon class="cls-2" points="340.56 202.59 333.38 202.59 360.84 117.27 368.02 117.27 340.56 202.59"/>
    <polygon class="cls-2" points="352.82 202.59 345.64 202.59 373.09 117.27 380.27 117.27 352.82 202.59"/>
    <polygon class="cls-2" points="365.07 202.59 357.89 202.59 385.35 117.27 392.53 117.27 365.07 202.59"/>
    <polygon class="cls-2" points="377.33 202.59 370.15 202.59 397.6 117.27 404.78 117.27 377.33 202.59"/>
    <polygon class="cls-2" points="389.58 202.59 382.4 202.59 409.86 117.27 417.04 117.27 389.58 202.59"/>
    <polygon class="cls-2" points="401.84 202.59 394.66 202.59 422.11 117.27 429.29 117.27 401.84 202.59"/>
    <polygon class="cls-2" points="414.09 202.59 406.91 202.59 434.37 117.27 441.55 117.27 414.09 202.59"/>
    <polygon class="cls-2" points="426.35 202.59 419.17 202.59 446.62 117.27 453.8 117.27 426.35 202.59"/>
    <polygon class="cls-2" points="438.6 202.59 431.42 202.59 458.88 117.27 466.05 117.27 438.6 202.59"/>
    <polygon class="cls-2" points="450.86 202.59 443.68 202.59 471.13 117.27 478.31 117.27 450.86 202.59"/>
  </g>
  <g>
    <polygon class="cls-2" points="14.49 326.65 7.31 326.65 34.76 241.34 41.94 241.34 14.49 326.65"/>
    <polygon class="cls-2" points="26.74 326.65 19.56 326.65 47.02 241.34 54.2 241.34 26.74 326.65"/>
    <polygon class="cls-2" points="39 326.65 31.82 326.65 59.27 241.34 66.45 241.34 39 326.65"/>
    <polygon class="cls-2" points="51.25 326.65 44.07 326.65 71.53 241.34 78.7 241.34 51.25 326.65"/>
    <polygon class="cls-2" points="63.51 326.65 56.33 326.65 83.78 241.34 90.96 241.34 63.51 326.65"/>
    <polygon class="cls-2" points="75.76 326.65 68.58 326.65 96.03 241.34 103.21 241.34 75.76 326.65"/>
    <polygon class="cls-2" points="88.02 326.65 80.84 326.65 108.29 241.34 115.47 241.34 88.02 326.65"/>
    <polygon class="cls-2" points="100.27 326.65 93.09 326.65 120.54 241.34 127.72 241.34 100.27 326.65"/>
    <polygon class="cls-2" points="112.53 326.65 105.35 326.65 132.8 241.34 139.98 241.34 112.53 326.65"/>
    <polygon class="cls-2" points="124.78 326.65 117.6 326.65 145.05 241.34 152.23 241.34 124.78 326.65"/>
  </g>
  <g>
    <polygon class="cls-2" points="333.37 419.15 326.19 419.15 353.64 333.84 360.82 333.84 333.37 419.15"/>
    <polygon class="cls-2" points="345.63 419.15 338.45 419.15 365.9 333.84 373.08 333.84 345.63 419.15"/>
    <polygon class="cls-2" points="357.88 419.15 350.7 419.15 378.15 333.84 385.33 333.84 357.88 419.15"/>
    <polygon class="cls-2" points="370.13 419.15 362.95 419.15 390.41 333.84 397.59 333.84 370.13 419.15"/>
    <polygon class="cls-2" points="382.39 419.15 375.21 419.15 402.66 333.84 409.84 333.84 382.39 419.15"/>
    <polygon class="cls-2" points="394.64 419.15 387.46 419.15 414.92 333.84 422.1 333.84 394.64 419.15"/>
    <polygon class="cls-2" points="406.9 419.15 399.72 419.15 427.17 333.84 434.35 333.84 406.9 419.15"/>
    <polygon class="cls-2" points="419.15 419.15 411.97 419.15 439.43 333.84 446.61 333.84 419.15 419.15"/>
    <polygon class="cls-2" points="431.41 419.15 424.23 419.15 451.68 333.84 458.86 333.84 431.41 419.15"/>
    <polygon class="cls-2" points="443.66 419.15 436.48 419.15 463.94 333.84 471.12 333.84 443.66 419.15"/>
  </g>
</svg>
