<svg id="Layer_1" data-name="Layer 1" xmlns="http://www.w3.org/2000/svg" viewBox="0 0 610 430">
  <defs>
    <style>
      .cls-1 {
        fill: #ffd7e2;
      }

      .cls-2 {
        fill: #272522;
      }

      .cls-3 {
        fill: #71bfff;
      }
    </style>
  </defs>
  <title>Artboard 3</title>
  <g id="Group_11" data-name="Group 11">
    <g id="Group_7" data-name="Group 7">
      <path id="Path_16" data-name="Path 16" class="cls-1" d="M31.91,419.33h-30L116.71,62.45h30Z"/>
      <path id="Path_17" data-name="Path 17" class="cls-1" d="M83.18,419.33h-30L168,62.45h30Z"/>
      <path id="Path_18" data-name="Path 18" class="cls-1" d="M134.44,419.33h-30L219.24,62.45h30Z"/>
      <path id="Path_19" data-name="Path 19" class="cls-1" d="M185.71,419.33h-30L270.5,62.45h30Z"/>
      <path id="Path_20" data-name="Path 20" class="cls-1" d="M237,419.33h-30L321.77,62.45h30Z"/>
      <path id="Path_21" data-name="Path 21" class="cls-1" d="M288.23,419.33h-30L373,62.45h30Z"/>
      <path id="Path_22" data-name="Path 22" class="cls-1" d="M339.49,419.33h-30L424.29,62.45h30Z"/>
      <path id="Path_23" data-name="Path 23" class="cls-1" d="M390.76,419.33h-30L475.56,62.45h30Z"/>
      <path id="Path_24" data-name="Path 24" class="cls-1" d="M442,419.33H412L526.82,62.45h30Z"/>
      <path id="Path_25" data-name="Path 25" class="cls-1" d="M493.29,419.33h-30L578.08,62.45h30Z"/>
    </g>
    <g id="Group_8" data-name="Group 8">
      <path id="Path_26" data-name="Path 26" class="cls-2" d="M145.21,202.37a61.23,61.23,0,0,1-25.33-5,40,40,0,0,1-17.54-14.79q-6.44-9.81-6.43-24.5,0-12.37,4.54-20.78a36.88,36.88,0,0,1,12.37-13.53,60,60,0,0,1,17.84-7.73,135,135,0,0,1,21-3.68q13-1.35,20.88-2.56t11.5-3.62A8.11,8.11,0,0,0,187.64,99v-.57q0-9.19-5.76-14.22t-16.28-5q-11.11,0-17.69,4.88a22.87,22.87,0,0,0-8.7,12.23l-38.09-3.1A52.25,52.25,0,0,1,112.53,69.8a55.33,55.33,0,0,1,22-15.27q13.48-5.37,31.27-5.37a95.89,95.89,0,0,1,23.73,2.9,62.82,62.82,0,0,1,20.2,9,44,44,0,0,1,14,15.62q5.12,9.51,5.12,22.76V199.57h-39V179h-1.16A41.54,41.54,0,0,1,179,191.21a43.28,43.28,0,0,1-14.4,8.21A58.58,58.58,0,0,1,145.21,202.37ZM157,174a34.31,34.31,0,0,0,16-3.63A28.08,28.08,0,0,0,184,160.52a25.47,25.47,0,0,0,4-14V130.75a21.58,21.58,0,0,1-5.27,2.27c-2.46.74-5,1.35-7.49,1.84-2.77.54-5.54,1-8.31,1.44l-7.54,1.12a50.41,50.41,0,0,0-12.66,3.38,20.32,20.32,0,0,0-8.41,6.24,15.44,15.44,0,0,0-3,9.71q0,8.42,6.13,12.81T157,174Z"/>
      <path id="Path_27" data-name="Path 27" class="cls-2" d="M315.52,202a55.57,55.57,0,0,1-30.59-8.74q-13.68-8.75-21.66-25.81t-8-41.9q0-25.52,8.21-42.48t21.9-25.43a56,56,0,0,1,30-8.45q12.46,0,20.83,4.2a41.62,41.62,0,0,1,13.54,10.44A55,55,0,0,1,357.66,76h1.26V1.61H400v198H359.4V175.79h-1.74A52.89,52.89,0,0,1,349.49,188a41,41,0,0,1-13.63,10Q327.51,202,315.52,202Zm13.05-32.76a26.32,26.32,0,0,0,16.86-5.47q6.92-5.44,10.63-15.31a65.11,65.11,0,0,0,3.73-23.1q0-13.25-3.68-23T345.48,87.25a27,27,0,0,0-16.91-5.31q-10.15,0-17.11,5.51a33.72,33.72,0,0,0-10.54,15.27,65.66,65.66,0,0,0-3.58,22.62A66.58,66.58,0,0,0,301,148.2q3.63,9.9,10.54,15.46t17.06,5.56Z"/>
      <path id="Path_28" data-name="Path 28" class="cls-2" d="M488.44,202a55.57,55.57,0,0,1-30.59-8.74q-13.69-8.75-21.66-25.81t-8-41.9q0-25.52,8.22-42.48t21.89-25.43a56,56,0,0,1,30-8.45q12.48,0,20.83,4.2A41.48,41.48,0,0,1,522.7,63.81,54.71,54.71,0,0,1,530.58,76h1.26V1.61h41.08v198h-40.6V175.79h-1.74A53.17,53.17,0,0,1,522.42,188a41.25,41.25,0,0,1-13.63,10Q500.42,202,488.44,202Zm13.05-32.76a26.32,26.32,0,0,0,16.86-5.47q6.92-5.44,10.64-15.31a65.36,65.36,0,0,0,3.72-23.1q0-13.25-3.68-23T518.4,87.25a27,27,0,0,0-16.91-5.31q-10.15,0-17.11,5.51a33.72,33.72,0,0,0-10.54,15.27,65.66,65.66,0,0,0-3.58,22.62,66.34,66.34,0,0,0,3.63,22.86q3.63,9.9,10.54,15.46t17.06,5.56Z"/>
      <path id="Path_29" data-name="Path 29" class="cls-2" d="M170.53,428.39q-22.9,0-39.39-9.33a63.08,63.08,0,0,1-25.37-26.48q-8.89-17.16-8.89-40.65,0-22.9,8.89-40.21a65.58,65.58,0,0,1,25.08-27q16.18-9.67,38-9.67a78.49,78.49,0,0,1,27.4,4.69,61.87,61.87,0,0,1,22.23,14.06,64,64,0,0,1,14.84,23.54q5.31,14.16,5.32,33.1v11.31H113.3V336.27h86.61A31.48,31.48,0,0,0,196,320.52a28.14,28.14,0,0,0-10.68-10.78,31.16,31.16,0,0,0-15.8-3.91,31.65,31.65,0,0,0-16.58,4.3,30.91,30.91,0,0,0-11.26,11.5,32.71,32.71,0,0,0-4.15,16v24.26q0,11,4.11,19a29.33,29.33,0,0,0,11.64,12.38,35.21,35.21,0,0,0,17.88,4.35,38.89,38.89,0,0,0,12.57-1.94,26,26,0,0,0,9.76-5.8,25.17,25.17,0,0,0,6.19-9.47L237.8,383A51.83,51.83,0,0,1,226,406.89a59.39,59.39,0,0,1-23,15.85Q188.9,428.4,170.53,428.39Z"/>
      <path id="Path_30" data-name="Path 30" class="cls-2" d="M320.26,427.91a55.67,55.67,0,0,1-30.59-8.75Q276,410.42,268,393.35t-8-41.9q0-25.51,8.21-42.48t21.9-25.42a55.93,55.93,0,0,1,30-8.46q12.46,0,20.83,4.2a41.34,41.34,0,0,1,13.53,10.44A54.71,54.71,0,0,1,362.4,302h1.26V227.53h41.08v198h-40.6V401.71H362.4a52.89,52.89,0,0,1-8.17,12.23,41,41,0,0,1-13.63,10Q332.24,427.92,320.26,427.91Zm13.05-32.77a26.37,26.37,0,0,0,16.86-5.46q6.91-5.46,10.64-15.32a65.33,65.33,0,0,0,3.72-23.1q0-13.25-3.68-23t-10.63-15.08a27,27,0,0,0-16.91-5.31q-10.15,0-17.11,5.51a33.62,33.62,0,0,0-10.54,15.27,65.66,65.66,0,0,0-3.58,22.62,66.34,66.34,0,0,0,3.63,22.86q3.63,9.9,10.54,15.47t17.06,5.55Z"/>
    </g>
    <g id="Group_9" data-name="Group 9">
      <path id="Path_31" data-name="Path 31" class="cls-3" d="M128.62,202.38a61.5,61.5,0,0,1-25.32-5,40,40,0,0,1-17.54-14.79q-6.44-9.81-6.43-24.5,0-12.37,4.54-20.78a36.91,36.91,0,0,1,12.37-13.54,60,60,0,0,1,17.84-7.73,133.81,133.81,0,0,1,21-3.67q13-1.35,20.88-2.56t11.5-3.63a8.08,8.08,0,0,0,3.58-7.15v-.58q0-9.18-5.75-14.21t-16.29-5q-11.11,0-17.69,4.89a22.88,22.88,0,0,0-8.7,12.22L84.54,93.25A52.15,52.15,0,0,1,96,69.81a55.35,55.35,0,0,1,22-15.28q13.49-5.36,31.27-5.36a95.89,95.89,0,0,1,23.73,2.9,62.62,62.62,0,0,1,20.2,9,43.93,43.93,0,0,1,14,15.61q5.12,9.52,5.12,22.77V199.58h-39V179H172a41.38,41.38,0,0,1-9.57,12.23,43.08,43.08,0,0,1-14.4,8.21A58.51,58.51,0,0,1,128.62,202.38ZM140.41,174a34.35,34.35,0,0,0,16.05-3.63,28,28,0,0,0,10.92-9.81,25.36,25.36,0,0,0,4-14V130.75a21,21,0,0,1-5.26,2.27c-2.23.67-4.72,1.29-7.49,1.84s-5.54,1-8.32,1.45-5.28.79-7.54,1.11a50.52,50.52,0,0,0-12.66,3.38,20.45,20.45,0,0,0-8.41,6.23,15.48,15.48,0,0,0-3,9.72q0,8.42,6.13,12.81t15.61,4.4Z"/>
      <path id="Path_32" data-name="Path 32" class="cls-3" d="M298.93,202a55.69,55.69,0,0,1-30.59-8.75q-13.68-8.75-21.65-25.81t-8-41.9q0-25.52,8.22-42.48t21.89-25.42a55.93,55.93,0,0,1,30-8.46q12.48,0,20.84,4.2A41.69,41.69,0,0,1,333.2,63.81,54.71,54.71,0,0,1,341.08,76h1.25V1.61h41.08v198h-40.6V175.79h-1.74A52.63,52.63,0,0,1,332.91,188a40.91,40.91,0,0,1-13.63,10Q310.92,202,298.93,202ZM312,169.22a26.26,26.26,0,0,0,16.87-5.46q6.91-5.46,10.63-15.32a65.33,65.33,0,0,0,3.72-23.1q0-13.23-3.67-23T328.9,87.26A27,27,0,0,0,312,81.94q-10.14,0-17.11,5.51a33.7,33.7,0,0,0-10.53,15.28,65.61,65.61,0,0,0-3.58,22.61,66.59,66.59,0,0,0,3.62,22.87q3.63,9.9,10.54,15.46T312,169.22Z"/>
      <path id="Path_33" data-name="Path 33" class="cls-3" d="M471.85,202a55.69,55.69,0,0,1-30.59-8.75q-13.68-8.75-21.65-25.81t-8-41.9q0-25.52,8.22-42.48t21.89-25.42a55.93,55.93,0,0,1,30-8.46q12.48,0,20.84,4.2a41.55,41.55,0,0,1,13.53,10.44A54.71,54.71,0,0,1,514,76h1.25V1.61h41.08v198H515.74V175.79H514A53,53,0,0,1,505.82,188a40.91,40.91,0,0,1-13.63,10Q483.84,202,471.85,202Zm13-32.77a26.38,26.38,0,0,0,16.87-5.46q6.9-5.46,10.63-15.32a65.33,65.33,0,0,0,3.72-23.1q0-13.25-3.67-23T501.82,87.25a27.05,27.05,0,0,0-16.92-5.31q-10.15,0-17.11,5.51a33.62,33.62,0,0,0-10.53,15.27,65.66,65.66,0,0,0-3.58,22.62,66.34,66.34,0,0,0,3.63,22.86q3.62,9.9,10.53,15.46t17.06,5.56Z"/>
      <path id="Path_34" data-name="Path 34" class="cls-3" d="M154,428.39q-22.92,0-39.39-9.33a62.9,62.9,0,0,1-25.37-26.48q-8.91-17.16-8.9-40.65,0-22.9,8.9-40.2a65.54,65.54,0,0,1,25.08-27q16.19-9.67,38-9.67a78.49,78.49,0,0,1,27.4,4.69,61.83,61.83,0,0,1,22.24,14.06,64.36,64.36,0,0,1,14.84,23.54q5.31,14.16,5.31,33.1v11.31H96.72V336.27h86.61a31.48,31.48,0,0,0-3.87-15.75,28.14,28.14,0,0,0-10.68-10.78,31.14,31.14,0,0,0-15.8-3.91,31.75,31.75,0,0,0-16.58,4.3,30.88,30.88,0,0,0-11.25,11.5,32.72,32.72,0,0,0-4.16,16v24.26q0,11,4.11,19.05a29.43,29.43,0,0,0,11.64,12.37,35.25,35.25,0,0,0,17.89,4.35,38.83,38.83,0,0,0,12.56-1.94,26,26,0,0,0,9.77-5.8,25.15,25.15,0,0,0,6.18-9.47L221.22,383a51.83,51.83,0,0,1-11.84,23.92,59.47,59.47,0,0,1-23,15.85Q172.31,428.4,154,428.39Z"/>
      <path id="Path_35" data-name="Path 35" class="cls-3" d="M303.67,427.91a55.61,55.61,0,0,1-30.59-8.75q-13.68-8.75-21.65-25.81t-8-41.9q0-25.51,8.22-42.48t21.89-25.42a55.93,55.93,0,0,1,30-8.46q12.48,0,20.84,4.21a41.55,41.55,0,0,1,13.53,10.44A54.42,54.42,0,0,1,345.82,302h1.25V227.53h41.08v198H347.56V401.72h-1.74A53.1,53.1,0,0,1,337.65,414,41.18,41.18,0,0,1,324,424Q315.65,427.91,303.67,427.91Zm13.05-32.77a26.38,26.38,0,0,0,16.87-5.46q6.92-5.46,10.63-15.32a65.36,65.36,0,0,0,3.72-23.1q0-13.25-3.67-23t-10.63-15.08a27.05,27.05,0,0,0-16.92-5.31q-10.16,0-17.11,5.51a33.62,33.62,0,0,0-10.53,15.27,65.66,65.66,0,0,0-3.58,22.62,66.34,66.34,0,0,0,3.63,22.86q3.63,9.9,10.54,15.46t17.05,5.57Z"/>
    </g>
  </g>
</svg>
