<svg id="Layer_1" data-name="Layer 1" xmlns="http://www.w3.org/2000/svg" viewBox="0 0 230 140">
  <defs>
    <style>
      .cls-1 {
        fill: #ffd7e2;
      }
    </style>
  </defs>
  <title>Artboard 5</title>
  <g>
    <polygon class="cls-1" points="14.67 135.56 3.64 135.56 45.83 4.45 56.86 4.45 14.67 135.56"/>
    <polygon class="cls-1" points="33.51 135.56 22.47 135.56 64.66 4.45 75.69 4.45 33.51 135.56"/>
    <polygon class="cls-1" points="52.34 135.56 41.31 135.56 83.49 4.45 94.53 4.45 52.34 135.56"/>
    <polygon class="cls-1" points="71.17 135.56 60.14 135.56 102.33 4.45 113.36 4.45 71.17 135.56"/>
    <polygon class="cls-1" points="90.01 135.56 78.97 135.56 121.16 4.45 132.19 4.45 90.01 135.56"/>
    <polygon class="cls-1" points="108.84 135.56 97.81 135.56 139.99 4.45 151.03 4.45 108.84 135.56"/>
    <polygon class="cls-1" points="127.67 135.56 116.64 135.56 158.83 4.45 169.86 4.45 127.67 135.56"/>
    <polygon class="cls-1" points="146.51 135.56 135.47 135.56 177.66 4.45 188.69 4.45 146.51 135.56"/>
    <polygon class="cls-1" points="165.34 135.56 154.31 135.56 196.49 4.45 207.53 4.45 165.34 135.56"/>
    <polygon class="cls-1" points="184.17 135.56 173.14 135.56 215.33 4.45 226.36 4.45 184.17 135.56"/>
  </g>
</svg>
